<svg xmlns="http://www.w3.org/2000/svg" xmlns:xlink="http://www.w3.org/1999/xlink" width="500" zoomAndPan="magnify" viewBox="0 0 375 374.999991" height="500" preserveAspectRatio="xMidYMid meet" version="1.0"><defs><clipPath id="id1"><path d="M 90 99 L 285 99 L 285 275.960938 L 90 275.960938 Z M 90 99 " clip-rule="nonzero"/></clipPath><clipPath id="id2"><path d="M 75.078125 217 L 87 217 L 87 256 L 75.078125 256 Z M 75.078125 217 " clip-rule="nonzero"/></clipPath><clipPath id="id3"><path d="M 289 217 L 300.078125 217 L 300.078125 256 L 289 256 Z M 289 217 " clip-rule="nonzero"/></clipPath></defs><g clip-path="url(#id1)"><path fill="#000000" d="M 284.550781 212.070312 C 285.203125 202.808594 286.933594 156.183594 258.589844 125.519531 C 241.859375 107.421875 218.078125 98.527344 187.886719 99.121094 C 157.714844 98.550781 133.917969 107.425781 117.1875 125.519531 C 89.5625 155.40625 90.503906 200.457031 91.175781 211.296875 C 90.777344 212.796875 90.5625 214.371094 90.5625 215.996094 L 90.5625 257.574219 C 90.5625 267.65625 98.742188 275.828125 108.835938 275.828125 L 121.523438 275.828125 C 131.617188 275.828125 139.800781 267.65625 139.800781 257.574219 L 139.800781 215.996094 C 139.800781 205.917969 131.617188 197.742188 121.523438 197.742188 L 108.835938 197.742188 C 107.457031 197.742188 106.117188 197.902344 104.828125 198.191406 C 105.519531 181.613281 109.546875 153.925781 127.308594 134.757812 C 141.285156 119.667969 161.65625 112.265625 187.75 112.8125 L 187.886719 112.816406 L 188.027344 112.8125 C 214.132812 112.289062 234.492188 119.667969 248.472656 134.757812 C 266.25 153.949219 270.269531 181.675781 270.953125 198.246094 C 269.589844 197.921875 268.167969 197.742188 266.703125 197.742188 L 254.011719 197.742188 C 243.917969 197.742188 235.742188 205.917969 235.742188 215.996094 L 235.742188 257.574219 C 235.742188 267.65625 243.917969 275.828125 254.011719 275.828125 L 266.703125 275.828125 C 276.792969 275.828125 284.976562 267.65625 284.976562 257.574219 L 284.976562 215.996094 C 284.976562 214.648438 284.828125 213.335938 284.550781 212.070312 Z M 284.550781 212.070312 " fill-opacity="1" fill-rule="nonzero"/></g><g clip-path="url(#id2)"><path fill="#000000" d="M 86.121094 217.011719 L 75.078125 223.476562 L 75.078125 248.195312 L 86.121094 255.421875 " fill-opacity="1" fill-rule="nonzero"/></g><g clip-path="url(#id3)"><path fill="#000000" d="M 289.039062 217.011719 L 300.078125 223.476562 L 300.078125 248.195312 L 289.039062 255.421875 " fill-opacity="1" fill-rule="nonzero"/></g></svg>